<mxfile host="app.diagrams.net" modified="2022-05-19T14:45:14.379Z" agent="5.0 (Windows NT 10.0; WOW64) AppleWebKit/537.36 (KHTML, like Gecko) Chrome/86.0.4240.198 Safari/537.36" etag="N9MwC24lw3rQDeZRme19" version="17.2.3" type="github">
  <diagram id="16LrOuwo-ax_vf0xnXEe" name="Page-1">
    <mxGraphModel dx="1794" dy="765" grid="1" gridSize="10" guides="1" tooltips="1" connect="1" arrows="1" fold="1" page="1" pageScale="1" pageWidth="827" pageHeight="1169" math="0" shadow="0">
      <root>
        <mxCell id="0" />
        <mxCell id="1" parent="0" />
        <mxCell id="Jwx_JlEAANkeFUnDSspo-6" style="edgeStyle=orthogonalEdgeStyle;rounded=0;orthogonalLoop=1;jettySize=auto;html=1;entryX=0.5;entryY=0;entryDx=0;entryDy=0;exitX=0.442;exitY=0;exitDx=0;exitDy=0;exitPerimeter=0;" parent="1" source="Jwx_JlEAANkeFUnDSspo-1" target="Jwx_JlEAANkeFUnDSspo-2" edge="1">
          <mxGeometry relative="1" as="geometry" />
        </mxCell>
        <mxCell id="Jwx_JlEAANkeFUnDSspo-7" style="edgeStyle=orthogonalEdgeStyle;rounded=0;orthogonalLoop=1;jettySize=auto;html=1;exitX=0.5;exitY=1;exitDx=0;exitDy=0;entryX=0.5;entryY=1;entryDx=0;entryDy=0;" parent="1" source="Jwx_JlEAANkeFUnDSspo-1" target="Jwx_JlEAANkeFUnDSspo-3" edge="1">
          <mxGeometry relative="1" as="geometry" />
        </mxCell>
        <mxCell id="Jwx_JlEAANkeFUnDSspo-1" value="关联策略勾选" style="rounded=0;whiteSpace=wrap;html=1;" parent="1" vertex="1">
          <mxGeometry x="30" y="180" width="120" height="60" as="geometry" />
        </mxCell>
        <mxCell id="Jwx_JlEAANkeFUnDSspo-2" value="创建生成Alice账户" style="rounded=0;whiteSpace=wrap;html=1;" parent="1" vertex="1">
          <mxGeometry x="230" y="120" width="120" height="60" as="geometry" />
        </mxCell>
        <mxCell id="Jwx_JlEAANkeFUnDSspo-3" value="创建生成Bob账户&lt;br&gt;，和上面不同点在最后多传一个参数：policy_id" style="rounded=0;whiteSpace=wrap;html=1;" parent="1" vertex="1">
          <mxGeometry x="230" y="250" width="120" height="60" as="geometry" />
        </mxCell>
        <mxCell id="Jwx_JlEAANkeFUnDSspo-8" value="否" style="text;html=1;align=center;verticalAlign=middle;resizable=0;points=[];autosize=1;strokeColor=none;fillColor=none;" parent="1" vertex="1">
          <mxGeometry x="165" y="70" width="30" height="20" as="geometry" />
        </mxCell>
        <mxCell id="Jwx_JlEAANkeFUnDSspo-9" value="是" style="text;html=1;align=center;verticalAlign=middle;resizable=0;points=[];autosize=1;strokeColor=none;fillColor=none;" parent="1" vertex="1">
          <mxGeometry x="155" y="290" width="30" height="20" as="geometry" />
        </mxCell>
        <mxCell id="Jwx_JlEAANkeFUnDSspo-10" value="FileReader二进制格式&lt;br&gt;读取上传的文件" style="rounded=1;whiteSpace=wrap;html=1;" parent="1" vertex="1">
          <mxGeometry x="600" y="125" width="130" height="50" as="geometry" />
        </mxCell>
        <mxCell id="Jwx_JlEAANkeFUnDSspo-13" value="" style="edgeStyle=orthogonalEdgeStyle;rounded=0;orthogonalLoop=1;jettySize=auto;html=1;" parent="1" source="Jwx_JlEAANkeFUnDSspo-11" target="Jwx_JlEAANkeFUnDSspo-12" edge="1">
          <mxGeometry relative="1" as="geometry" />
        </mxCell>
        <mxCell id="Jwx_JlEAANkeFUnDSspo-11" value="上传文件示例" style="rounded=0;whiteSpace=wrap;html=1;" parent="1" vertex="1">
          <mxGeometry x="414" y="120" width="120" height="60" as="geometry" />
        </mxCell>
        <mxCell id="Jwx_JlEAANkeFUnDSspo-12" value="Page：Pre/__test__文件夹下&lt;br&gt;Line：45" style="shape=document;whiteSpace=wrap;html=1;boundedLbl=1;" parent="1" vertex="1">
          <mxGeometry x="414" y="10" width="120" height="80" as="geometry" />
        </mxCell>
        <mxCell id="Jwx_JlEAANkeFUnDSspo-14" value="上传前要弹出确认框&lt;br&gt;位置：插件端" style="rounded=1;whiteSpace=wrap;html=1;" parent="1" vertex="1">
          <mxGeometry x="605" y="270" width="120" height="60" as="geometry" />
        </mxCell>
        <mxCell id="Jwx_JlEAANkeFUnDSspo-18" style="edgeStyle=orthogonalEdgeStyle;rounded=0;orthogonalLoop=1;jettySize=auto;html=1;exitX=1;exitY=0.5;exitDx=0;exitDy=0;entryX=0;entryY=0.5;entryDx=0;entryDy=0;" parent="1" source="Jwx_JlEAANkeFUnDSspo-15" target="Jwx_JlEAANkeFUnDSspo-16" edge="1">
          <mxGeometry relative="1" as="geometry" />
        </mxCell>
        <mxCell id="Jwx_JlEAANkeFUnDSspo-15" value="发现页面" style="rounded=0;whiteSpace=wrap;html=1;" parent="1" vertex="1">
          <mxGeometry x="70" y="440" width="80" height="60" as="geometry" />
        </mxCell>
        <mxCell id="Jwx_JlEAANkeFUnDSspo-19" style="edgeStyle=orthogonalEdgeStyle;rounded=0;orthogonalLoop=1;jettySize=auto;html=1;exitX=1;exitY=0.5;exitDx=0;exitDy=0;entryX=0;entryY=0.5;entryDx=0;entryDy=0;" parent="1" source="Jwx_JlEAANkeFUnDSspo-16" target="Jwx_JlEAANkeFUnDSspo-17" edge="1">
          <mxGeometry relative="1" as="geometry" />
        </mxCell>
        <mxCell id="Jwx_JlEAANkeFUnDSspo-16" value="大家上传文件的列表" style="rounded=0;whiteSpace=wrap;html=1;" parent="1" vertex="1">
          <mxGeometry x="230" y="440" width="120" height="60" as="geometry" />
        </mxCell>
        <mxCell id="Jwx_JlEAANkeFUnDSspo-23" style="edgeStyle=orthogonalEdgeStyle;rounded=0;orthogonalLoop=1;jettySize=auto;html=1;entryX=0.5;entryY=0;entryDx=0;entryDy=0;" parent="1" source="Jwx_JlEAANkeFUnDSspo-17" target="Jwx_JlEAANkeFUnDSspo-22" edge="1">
          <mxGeometry relative="1" as="geometry" />
        </mxCell>
        <mxCell id="Jwx_JlEAANkeFUnDSspo-17" value="Bob的申请页面" style="rounded=0;whiteSpace=wrap;html=1;" parent="1" vertex="1">
          <mxGeometry x="480" y="440" width="120" height="60" as="geometry" />
        </mxCell>
        <mxCell id="Jwx_JlEAANkeFUnDSspo-20" value="查询" style="text;html=1;align=center;verticalAlign=middle;resizable=0;points=[];autosize=1;strokeColor=none;fillColor=none;" parent="1" vertex="1">
          <mxGeometry x="160" y="440" width="40" height="20" as="geometry" />
        </mxCell>
        <mxCell id="Jwx_JlEAANkeFUnDSspo-21" value="申请下载Alice文件" style="text;html=1;align=center;verticalAlign=middle;resizable=0;points=[];autosize=1;strokeColor=none;fillColor=none;" parent="1" vertex="1">
          <mxGeometry x="359" y="440" width="110" height="20" as="geometry" />
        </mxCell>
        <mxCell id="Jwx_JlEAANkeFUnDSspo-26" style="edgeStyle=orthogonalEdgeStyle;rounded=0;orthogonalLoop=1;jettySize=auto;html=1;exitX=0;exitY=0.5;exitDx=0;exitDy=0;entryX=0.5;entryY=0;entryDx=0;entryDy=0;" parent="1" source="Jwx_JlEAANkeFUnDSspo-22" target="Jwx_JlEAANkeFUnDSspo-25" edge="1">
          <mxGeometry relative="1" as="geometry" />
        </mxCell>
        <mxCell id="Jwx_JlEAANkeFUnDSspo-29" style="edgeStyle=orthogonalEdgeStyle;rounded=0;orthogonalLoop=1;jettySize=auto;html=1;entryX=0.583;entryY=-0.083;entryDx=0;entryDy=0;entryPerimeter=0;" parent="1" source="Jwx_JlEAANkeFUnDSspo-22" target="Jwx_JlEAANkeFUnDSspo-28" edge="1">
          <mxGeometry relative="1" as="geometry" />
        </mxCell>
        <mxCell id="Jwx_JlEAANkeFUnDSspo-22" value="Alice的审核页面" style="rounded=0;whiteSpace=wrap;html=1;" parent="1" vertex="1">
          <mxGeometry x="480" y="585" width="120" height="60" as="geometry" />
        </mxCell>
        <mxCell id="Jwx_JlEAANkeFUnDSspo-24" value="申请同步Alice" style="text;html=1;align=center;verticalAlign=middle;resizable=0;points=[];autosize=1;strokeColor=none;fillColor=none;" parent="1" vertex="1">
          <mxGeometry x="465" y="520" width="90" height="20" as="geometry" />
        </mxCell>
        <mxCell id="Jwx_JlEAANkeFUnDSspo-25" value="Bob申请页下载" style="rounded=0;whiteSpace=wrap;html=1;" parent="1" vertex="1">
          <mxGeometry x="294" y="660" width="120" height="60" as="geometry" />
        </mxCell>
        <mxCell id="Jwx_JlEAANkeFUnDSspo-32" style="edgeStyle=orthogonalEdgeStyle;rounded=0;orthogonalLoop=1;jettySize=auto;html=1;entryX=0.5;entryY=0;entryDx=0;entryDy=0;" parent="1" source="Jwx_JlEAANkeFUnDSspo-27" target="Jwx_JlEAANkeFUnDSspo-31" edge="1">
          <mxGeometry relative="1" as="geometry" />
        </mxCell>
        <mxCell id="Jwx_JlEAANkeFUnDSspo-27" value="在插件端，同意" style="text;html=1;align=center;verticalAlign=middle;resizable=0;points=[];autosize=1;strokeColor=none;fillColor=none;" parent="1" vertex="1">
          <mxGeometry x="359" y="580" width="100" height="20" as="geometry" />
        </mxCell>
        <mxCell id="Jwx_JlEAANkeFUnDSspo-28" value="Bob申请页查看&lt;br&gt;拒绝理由" style="rounded=0;whiteSpace=wrap;html=1;" parent="1" vertex="1">
          <mxGeometry x="650" y="660" width="120" height="60" as="geometry" />
        </mxCell>
        <mxCell id="Jwx_JlEAANkeFUnDSspo-30" value="在插件端，拒绝" style="text;html=1;align=center;verticalAlign=middle;resizable=0;points=[];autosize=1;strokeColor=none;fillColor=none;" parent="1" vertex="1">
          <mxGeometry x="615" y="575" width="100" height="20" as="geometry" />
        </mxCell>
        <mxCell id="Jwx_JlEAANkeFUnDSspo-31" value="代币账户支付" style="rounded=1;whiteSpace=wrap;html=1;" parent="1" vertex="1">
          <mxGeometry x="90" y="660" width="120" height="60" as="geometry" />
        </mxCell>
        <mxCell id="Jwx_JlEAANkeFUnDSspo-33" value="Bob和Alice达成联系，消耗代币" style="text;html=1;align=center;verticalAlign=middle;resizable=0;points=[];autosize=1;strokeColor=none;fillColor=none;" parent="1" vertex="1">
          <mxGeometry x="130" y="560" width="180" height="20" as="geometry" />
        </mxCell>
        <mxCell id="Jwx_JlEAANkeFUnDSspo-34" value="Actor" style="shape=umlActor;verticalLabelPosition=bottom;verticalAlign=top;html=1;outlineConnect=0;" parent="1" vertex="1">
          <mxGeometry x="20" y="440" width="30" height="60" as="geometry" />
        </mxCell>
        <mxCell id="Jwx_JlEAANkeFUnDSspo-39" value="Bob" style="text;html=1;align=center;verticalAlign=middle;resizable=0;points=[];autosize=1;strokeColor=none;fillColor=none;" parent="1" vertex="1">
          <mxGeometry x="20" y="410" width="40" height="20" as="geometry" />
        </mxCell>
        <mxCell id="Jwx_JlEAANkeFUnDSspo-40" value="Actor" style="shape=umlActor;verticalLabelPosition=bottom;verticalAlign=top;html=1;outlineConnect=0;" parent="1" vertex="1">
          <mxGeometry x="555" y="520" width="30" height="60" as="geometry" />
        </mxCell>
        <mxCell id="Jwx_JlEAANkeFUnDSspo-41" value="Alice" style="text;html=1;align=center;verticalAlign=middle;resizable=0;points=[];autosize=1;strokeColor=none;fillColor=none;" parent="1" vertex="1">
          <mxGeometry x="580" y="520" width="40" height="20" as="geometry" />
        </mxCell>
        <mxCell id="Jwx_JlEAANkeFUnDSspo-42" value="第一个弹窗" style="shape=callout;whiteSpace=wrap;html=1;perimeter=calloutPerimeter;" parent="1" vertex="1">
          <mxGeometry x="660" y="190" width="120" height="80" as="geometry" />
        </mxCell>
        <mxCell id="Jwx_JlEAANkeFUnDSspo-43" value="第二个弹框" style="shape=callout;whiteSpace=wrap;html=1;perimeter=calloutPerimeter;" parent="1" vertex="1">
          <mxGeometry x="620" y="505" width="120" height="75" as="geometry" />
        </mxCell>
        <mxCell id="Jwx_JlEAANkeFUnDSspo-44" value="第二个弹框" style="shape=callout;whiteSpace=wrap;html=1;perimeter=calloutPerimeter;" parent="1" vertex="1">
          <mxGeometry x="349" y="505" width="120" height="75" as="geometry" />
        </mxCell>
      </root>
    </mxGraphModel>
  </diagram>
</mxfile>
